# xmcd
#
# Track frame offsets:
#	150
#	15664
#	30936
#	43099
#	59496
#	72437
#	87617
#	104671
#	117295
#	129922
#	144391
#	154888
#	171648
#	190224
#	203091
#	217214
#	234850
#
# Disc length: 3347 seconds
#
# Revision: 1
# Processed by: cddbd v1.5.2PL0 Copyright (c) Steve Scherf et al.
# Submitted via: audiograbber 1.83.01
#
DISCID=fb0d1111
DTITLE=George Strait - Karaoke Classics
DYEAR=1900
DGENRE=
TTITLE0=George Strait - All my ex's live in Texas
TTITLE1=George Strait - Check yes or no
TTITLE2=George Strait - The fireman
TTITLE3=George Strait - Write this down
TTITLE4=George Strait - Blue clear sky
TTITLE5=George Strait - Tell me something bad about Tusla
TTITLE6=George Strait - Carrying your love with me
TTITLE7=George Strait - Amarillo by morning
TTITLE8=George Strait - The chair
TTITLE9=George Strait - Ocean front property
TTITLE10=George Strait - Honk if you honky tonk
TTITLE11=George Strait - Living and living well
TTITLE12=George Strait - Desperately
TTITLE13=George Strait - Love bug
TTITLE14=George Strait - She'll leave you with a smile
TTITLE15=George Strait - I hate everything
TTITLE16=George Strait - I cross my heart
EXTD=
EXTT0=
EXTT1=
EXTT2=
EXTT3=
EXTT4=
EXTT5=
EXTT6=
EXTT7=
EXTT8=
EXTT9=
EXTT10=
EXTT11=
EXTT12=
EXTT13=
EXTT14=
EXTT15=
EXTT16=
PLAYORDER=
